<?xml version="1.0" encoding="utf-8"?>
<!-- Generator: Adobe Illustrator 27.5.0, SVG Export Plug-In . SVG Version: 6.00 Build 0)  -->
<svg version="1.1" id="OBJECTS" xmlns="http://www.w3.org/2000/svg" xmlns:xlink="http://www.w3.org/1999/xlink" x="0px" y="0px"
	width="500px" height="500px" viewBox="0 0 500 500" enable-background="new 0 0 500 500" xml:space="preserve">
<path fill="#02FEFF" d="M461.1,223.3l-16.2-9.4v-72.1c0-1.2-0.7-2.2-1.7-2.8l-39.1-19.4l1.4-2.8l-56-27.8h-37.2v3.1H179.5v-3.1H120
	l-40.2,23.2l1.5,2.7l-30.4,17.6c-1,0.6-1.5,1.6-1.5,2.7v88.5h-3.1v55.7l36.9,21.3v99h71.2l-4.6,5.1h181.7l7.4-8.2h74.2
	c1.7,0,3.1-1.4,3.1-3.1v-34.3l36-20.8l1.5,2.7l26.3-15.2v-95.3l-17.3-10L461.1,223.3z M84.4,120.3L86,123l37.3-21.6h56.2v-3.1h132.9
	v3.1h34.3l44.6,22.2H268.5l-57.1,33H55.6V137L84.4,120.3z M55.6,159.7h156.6l57.1-33h128.2l2.5,1.2l0.6-1.2h3.8l34.3,17.1v72
	c0,1.1,0.6,2.1,1.5,2.7l17.8,10.3l-1.5,2.7l11.1,6.4V270l-46,26.6H265.1l-36,23.2H95.5v-26.2l-36.9-21.3v-48.6h-3.1V159.7z
	M95.5,322.8H230l36-23.2h150.2l-64.6,37.3H95.5V322.8z M411.6,354.7c-1,0.6-1.5,1.6-1.5,2.7v33h-65.6l9.7-10.8H172.5l-6.9,7.7h-70
	V340h256.9l70-40.4h0.9v-0.5l44.3-25.6v45.3l-20.1,11.6l1.5,2.7L411.6,354.7z"/>
<polygon fill="#02FEFF" points="26.2,398.6 71.2,398.6 71.2,308.8 26.2,283.8 "/>
</svg>